# xmcd
#
# Track frame offsets: 
#        150
#        18507
#        38519
#        57269
#        70833
#        84434
#        100016
#        125019
#        144340
#        164221
#        183507
#        205363
#        224321
#        249682
#        278241
#
# Disc length: 3963 seconds
#
# Revision: 0
# Processed by: cddbd v1.4PL0 Copyright (c) Steve Scherf et al.
# Submitted via: ExactAudioCopy v0.90b4
#
DISCID=de0f790f
DTITLE=Van Morrison - Back Again, 'Cos I Don't Fade Away, disc 1
DYEAR=2003
DGENRE=Celtic
TTITLE0=Celtic Swing
TTITLE1=Only A Dream
TTITLE2=Talk Is Cheap
TTITLE3=If You Only Knew
TTITLE4=Lost John
TTITLE5=Here Comes The Night
TTITLE6=Raincheck
TTITLE7=Allow Me > Mama Don't Allow
TTITLE8=Vanlose Stairway
TTITLE9=Back On Top
TTITLE10=In The Midnight
TTITLE11=Chopping Wood
TTITLE12=Early In The Morning ('Bout The Break Of Day)
TTITLE13=Too Long In Exile
TTITLE14=Why Must I Always Explain ?
EXTD=
EXTT0=
EXTT1=
EXTT2=
EXTT3=
EXTT4=
EXTT5=
EXTT6=
EXTT7=
EXTT8=
EXTT9=
EXTT10=
EXTT11=
EXTT12=
EXTT13=
EXTT14=
PLAYORDER=
